<svg width="1728" height="1117" fill="none" xmlns="http://www.w3.org/2000/svg"><g clip-path="url(#a)"><path fill="#fff" d="M0 0h1728v1117H0z"/><path d="M1728 0H0v1117h1728V0Z" fill="url(#b)"/><path d="M1728 911.5c-33-24.5-59-40-115.5-97-47.89-48.315-90.22-125-118.5-179.5-41-79-132-158.5-285-199s-310 0-385-127C780.299 235 760.5 71 629.5 0H1728v911.5Z" fill="url(#c)"/><path d="M1728 465.5c-49.5-17-121.28 13.031-193.5-9.5-99.06-30.902-151.08-76.783-211-161.5-58-82-99.5-134.5-256-134.5-181 0-205-21.5-279.5-160h940v465.5Z" fill="url(#d)"/><path d="M0 580.5c86 29 138.892-5.769 217 29C322.993 656.681 368.38 698 421.5 825c93.901 224.5 400 0 486 292H0V580.5Z" fill="url(#e)"/></g><defs><linearGradient id="b" x1="541" y1="1117" x2="864" y2="0" gradientUnits="userSpaceOnUse"><stop stop-color="#347144"/><stop offset="1" stop-color="#4DA865"/></linearGradient><linearGradient id="c" x1="1306" y1="0" x2="1094.5" y2="456" gradientUnits="userSpaceOnUse"><stop stop-color="#347144"/><stop offset="1" stop-color="#A0C655"/></linearGradient><linearGradient id="d" x1="1559" y1="0" x2="1336" y2="336.5" gradientUnits="userSpaceOnUse"><stop stop-color="#3D7A47"/><stop offset="1" stop-color="#A0C655"/></linearGradient><linearGradient id="e" x1="172.5" y1="1117" x2="382" y2="746" gradientUnits="userSpaceOnUse"><stop stop-color="#3D7A47"/><stop offset="1" stop-color="#A0C655"/></linearGradient><clipPath id="a"><path fill="#fff" d="M0 0h1728v1117H0z"/></clipPath></defs></svg>