<svg width="105" height="81" fill="none" xmlns="http://www.w3.org/2000/svg"><path d="M17.5 62.51c-6 1.5-9 1.5-17.5.5 7 15 15.828 11 25.5 8.5-3.5-2.5-6-6-8-9ZM49 49.01c-5.176 4.012-9.379 6.67-15.5 9 2.5 3 6 5.5 10.5 7.5 5.5-1.5 7.267-2.882 11.5-5.5 3.089-1.912 4.828-3.04 7.5-5.5 2.136-1.967 3.216-3.21 5-5.5 1.73-2.222 4-6 4-6s2.5-5 3.5-8c-1-7-3.5-14-10.5-17.5 0 3.5-.037 5.694-1 9.5-1.158 4.573-2.47 7.016-5 11-3.113 4.9-5.412 7.442-10 11Z" fill="#347144"/><path d="M27.5 49.01c1.057 3.878 2.428 5.908 5 9 3.397 4.082 6.084 5.988 11 8 13.5 5.522 29 0 35-5.5 0 0-10.5 17.944-29.5 19-26-3-37-20-36-40.5 3.5-37.5 36-39 36-39s33.5-1.5 27 34c-2-10-4.303-13.189-11-17.5-16.17-10.412-44.04 8.5-37.5 32.5Z" fill="#A0C655"/><path d="M105 33.01c-4 26.5-21 48-54 47 22.5-3 33-25 35-36 .727-4 1.213-6.35 4-9 4.282-4.074 15-2 15-2Z" fill="#347144"/></svg>