<svg width="512" height="144" fill="none" xmlns="http://www.w3.org/2000/svg"><g filter="url(#a)"><mask id="l" fill="#fff"><path d="M452.48 89.178h-24.96c1.92 28.027 20.48 33.123 40.96 33.123 21.096 0 42.449-5.733 43.52-31.849 0-33.123-53.76-22.931-56.96-39.493-1.56-8.073 13.44-8.918 21.12-7.007 5.76 2.548 5.76 5.096 8.96 8.28 2.56 5.097 24.32 3.823 24.32 3.823-1.92-22.932-19.84-31.85-40.96-31.85-18.897 0-37.12 8.281-38.4 29.302 0 0-1.28 19.11 19.2 25.48 14.72 6.37 37.12 3.821 37.12 15.924-.64 5.733-8.207 8.542-15.36 8.281-9.092-.333-17.28-2.548-18.56-14.014Z"/><path fill-rule="evenodd" clip-rule="evenodd" d="M382.721 122.279C417.5 121.268 422.4 91.386 422.4 91.386c-29.439-3.861-19.839 7.08-40.959 9.654-17.918 0-18.441-21.417-18.441-21.417h59.4v-8.957c0-17.916-12.879-45.286-40.959-45.286-28.08 0-40.168 20.628-41.441 45.286-1.359 26.329 12.5 52.49 42.721 51.613Zm-1.281-77.01c-14.504 0-17.211 13.263-17.44 17.434h36c-.519-4.171-4.056-17.435-18.56-17.435ZM296.32 122.301c-22.82 0-26.88-14.013-26.88-14.013v22.931c0 7.036-5.731 12.74-12.8 12.74H246s.019-29.327 0-64.336c-.022-41.802 12.061-54.243 42.031-54.243 29.969 0 44.295 17.418 44.469 47.88.137 24.027-12.039 49.041-36.18 49.041Zm-6.4-21.657c-13.449 0-20.571-7.584-20.571-27.49 0-19.408 5.712-27.77 18.682-27.77 12.969 0 21.072 8.362 21.072 27.87 0 19.507-6.103 27.39-19.183 27.39Z"/><path d="M181.12 89.178h-24.96c1.92 28.027 20.48 33.123 40.96 33.123 21.096 0 42.449-5.733 43.52-31.849 0-33.123-53.76-22.931-56.96-39.493-1.56-8.073 13.44-8.918 21.12-7.007 5.76 2.548 5.76 5.096 8.96 8.28 2.56 5.097 24.32 3.823 24.32 3.823-1.92-22.932-19.84-31.85-40.96-31.85-18.897 0-37.12 8.281-38.4 29.302 0 0-1.28 19.11 19.2 25.48 14.72 6.37 37.12 3.821 37.12 15.924-.64 5.733-8.207 8.542-15.36 8.281-9.092-.333-17.28-2.548-18.56-14.014Z"/><path d="M160 66.247c-5.12 33.76-26.88 61.15-69.12 59.876 28.8-3.822 42.24-31.85 44.8-45.863.931-5.096 1.553-8.089 5.12-11.466 5.481-5.188 19.2-2.547 19.2-2.547ZM88.32 86.63c-6.625 5.113-12.005 8.498-19.84 11.466 3.2 3.822 7.68 7.007 13.44 9.555 7.04-1.911 9.301-3.67 14.72-7.007 3.954-2.435 6.18-3.873 9.6-7.007 2.734-2.505 4.117-4.09 6.4-7.007 2.215-2.83 5.12-7.644 5.12-7.644s3.2-6.37 4.48-10.192c-1.28-8.917-4.48-17.835-13.44-22.294 0 4.459-.047 7.256-1.28 12.103-1.483 5.827-3.161 8.94-6.4 14.013-3.985 6.243-6.928 9.482-12.8 14.014ZM48 103.829c-7.68 1.911-11.52 1.911-22.4.637 8.96 19.109 20.26 14.013 32.64 10.828-4.48-3.185-7.68-7.643-10.24-11.465ZM0 26.753v95.548h24.32v-85.61c0-5.489-4.47-9.938-9.984-9.938H0ZM0 19.11V0h14.336c5.514 0 9.984 4.449 9.984 9.937v9.173H0Z"/><path d="M60.8 86.63c1.353 4.942 3.108 7.528 6.4 11.466 4.349 5.202 7.787 7.629 14.08 10.192 17.28 7.036 37.12 0 44.8-7.007 0 0-13.44 22.86-37.76 24.205-33.28-3.822-47.36-25.479-46.08-51.596 4.48-47.774 46.08-49.684 46.08-49.684s42.88-1.912 34.56 43.314c-2.56-12.74-5.508-16.8-14.08-22.294-20.698-13.264-56.372 10.829-48 41.404Z"/></mask><path d="M452.48 89.178h-24.96c1.92 28.027 20.48 33.123 40.96 33.123 21.096 0 42.449-5.733 43.52-31.849 0-33.123-53.76-22.931-56.96-39.493-1.56-8.073 13.44-8.918 21.12-7.007 5.76 2.548 5.76 5.096 8.96 8.28 2.56 5.097 24.32 3.823 24.32 3.823-1.92-22.932-19.84-31.85-40.96-31.85-18.897 0-37.12 8.281-38.4 29.302 0 0-1.28 19.11 19.2 25.48 14.72 6.37 37.12 3.821 37.12 15.924-.64 5.733-8.207 8.542-15.36 8.281-9.092-.333-17.28-2.548-18.56-14.014Z" fill="url(#b)" fill-opacity=".75"/><path fill-rule="evenodd" clip-rule="evenodd" d="M382.721 122.279C417.5 121.268 422.4 91.386 422.4 91.386c-29.439-3.861-19.839 7.08-40.959 9.654-17.918 0-18.441-21.417-18.441-21.417h59.4v-8.957c0-17.916-12.879-45.286-40.959-45.286-28.08 0-40.168 20.628-41.441 45.286-1.359 26.329 12.5 52.49 42.721 51.613Zm-1.281-77.01c-14.504 0-17.211 13.263-17.44 17.434h36c-.519-4.171-4.056-17.435-18.56-17.435Z" fill="url(#c)" fill-opacity=".75"/><path fill-rule="evenodd" clip-rule="evenodd" d="M296.32 122.301c-22.82 0-26.88-14.013-26.88-14.013v22.931c0 7.036-5.731 12.74-12.8 12.74H246s.019-29.327 0-64.336c-.022-41.802 12.061-54.243 42.031-54.243 29.969 0 44.295 17.418 44.469 47.88.137 24.027-12.039 49.041-36.18 49.041Zm-6.4-21.657c-13.449 0-20.571-7.584-20.571-27.49 0-19.408 5.712-27.77 18.682-27.77 12.969 0 21.072 8.362 21.072 27.87 0 19.507-6.103 27.39-19.183 27.39Z" fill="url(#d)" fill-opacity=".75"/><path d="M181.12 89.178h-24.96c1.92 28.027 20.48 33.123 40.96 33.123 21.096 0 42.449-5.733 43.52-31.849 0-33.123-53.76-22.931-56.96-39.493-1.56-8.073 13.44-8.918 21.12-7.007 5.76 2.548 5.76 5.096 8.96 8.28 2.56 5.097 24.32 3.823 24.32 3.823-1.92-22.932-19.84-31.85-40.96-31.85-18.897 0-37.12 8.281-38.4 29.302 0 0-1.28 19.11 19.2 25.48 14.72 6.37 37.12 3.821 37.12 15.924-.64 5.733-8.207 8.542-15.36 8.281-9.092-.333-17.28-2.548-18.56-14.014Z" fill="url(#e)" fill-opacity=".75"/><path d="M160 66.247c-5.12 33.76-26.88 61.15-69.12 59.876 28.8-3.822 42.24-31.85 44.8-45.863.931-5.096 1.553-8.089 5.12-11.466 5.481-5.188 19.2-2.547 19.2-2.547Z" fill="url(#f)" fill-opacity=".75"/><path d="M88.32 86.63c-6.625 5.113-12.005 8.498-19.84 11.466 3.2 3.822 7.68 7.007 13.44 9.555 7.04-1.911 9.301-3.67 14.72-7.007 3.954-2.435 6.18-3.873 9.6-7.007 2.734-2.505 4.117-4.09 6.4-7.007 2.215-2.83 5.12-7.644 5.12-7.644s3.2-6.37 4.48-10.192c-1.28-8.917-4.48-17.835-13.44-22.294 0 4.459-.047 7.256-1.28 12.103-1.483 5.827-3.161 8.94-6.4 14.013-3.985 6.243-6.928 9.482-12.8 14.014Z" fill="url(#g)" fill-opacity=".75"/><path d="M48 103.829c-7.68 1.911-11.52 1.911-22.4.637 8.96 19.109 20.26 14.013 32.64 10.828-4.48-3.185-7.68-7.643-10.24-11.465Z" fill="url(#h)" fill-opacity=".75"/><path d="M0 26.753v95.548h24.32v-85.61c0-5.489-4.47-9.938-9.984-9.938H0Z" fill="url(#i)" fill-opacity=".75"/><path d="M0 19.11V0h14.336c5.514 0 9.984 4.449 9.984 9.937v9.173H0Z" fill="url(#j)" fill-opacity=".75"/><path d="M60.8 86.63c1.353 4.942 3.108 7.528 6.4 11.466 4.349 5.202 7.787 7.629 14.08 10.192 17.28 7.036 37.12 0 44.8-7.007 0 0-13.44 22.86-37.76 24.205-33.28-3.822-47.36-25.479-46.08-51.596 4.48-47.774 46.08-49.684 46.08-49.684s42.88-1.912 34.56 43.314c-2.56-12.74-5.508-16.8-14.08-22.294-20.698-13.264-56.372 10.829-48 41.404Z" fill="url(#k)" fill-opacity=".75"/><path d="m452.48 89.178.994-.111a1 1 0 0 0-.994-.889v1Zm-24.96 0v-1a1 1 0 0 0-.998 1.068l.998-.068ZM512 90.452l.999.041.001-.041h-1Zm-56.96-39.493.982-.19-.982.19Zm21.12-7.007.405-.914a1.016 1.016 0 0 0-.164-.056l-.241.97Zm8.96 8.28.894-.448a1.001 1.001 0 0 0-.189-.26l-.705.709Zm24.32 3.823.058.998a1.001 1.001 0 0 0 .939-1.082l-.997.084Zm-79.36-2.548.998.067v-.006l-.998-.061Zm19.2 25.48.397-.918a1.02 1.02 0 0 0-.1-.038l-.297.955ZM486.4 94.91l.994.11c.004-.036.006-.073.006-.11h-1Zm-15.36 8.281.037-1-.037 1Zm-88.319 19.087.029.999-.029-.999ZM422.4 91.386l.987.162a1.001 1.001 0 0 0-.857-1.153l-.13.991Zm-40.959 9.654v1a.97.97 0 0 0 .121-.007l-.121-.993ZM363 79.623v-1a1.003 1.003 0 0 0-1 1.025l1-.025Zm59.4 0v1a1 1 0 0 0 1-1h-1ZM340 70.666l.999.051-.999-.051Zm24-7.963-.998-.055a.999.999 0 0 0 .998 1.055v-1Zm36 0v1a.997.997 0 0 0 .992-1.123l-.992.123ZM246 143.96l-1-.001a1.001 1.001 0 0 0 1 1.001v-1Zm0-64.336h1-1Zm86.5-6.362-1 .005 1-.005Zm-63.06 35.027.961-.279a1.001 1.001 0 0 0-1.961.279h1Zm-88.32-19.11.994-.111a1 1 0 0 0-.994-.889v1Zm-24.96 0v-1a1 1 0 0 0-.998 1.068l.998-.068Zm84.48 1.274.999.041.001-.041h-1Zm-56.96-39.493.982-.19-.982.19Zm21.12-7.007.405-.914a1.016 1.016 0 0 0-.164-.056l-.241.97Zm8.96 8.28.894-.448a1.001 1.001 0 0 0-.189-.26l-.705.709Zm24.32 3.823.058.998a.997.997 0 0 0 .938-1.082l-.996.084Zm-79.36-2.548.998.067v-.006l-.998-.061Zm19.2 25.48.397-.918a1.02 1.02 0 0 0-.1-.038l-.297.955Zm37.12 15.924.994.11c.004-.036.006-.073.006-.11h-1Zm-15.36 8.281.037-1-.037 1ZM160 66.247l.989.15a1 1 0 0 0-.8-1.132l-.189.982Zm-69.12 59.876-.131-.991a1 1 0 0 0 .1 1.991l.031-1Zm44.8-45.863.984.18-.984-.18Zm5.12-11.466.687.727-.687-.727Zm-80 17.836.965-.264-.965.264Zm6.4 11.466.767-.642-.767.642Zm14.08 10.192.377-.927-.377.927Zm44.8-7.007.862.507a1 1 0 0 0-1.536-1.246l.674.739Zm-37.76 24.205-.114.994c.056.006.113.008.17.005l-.056-.999ZM42.24 73.89l-.996-.093a.937.937 0 0 0-.003.044l.999.05Zm46.08-49.684-.044-1h-.002l.046 1Zm34.56 43.314-.98.198a1 1 0 0 0 1.963-.017l-.983-.18ZM108.8 45.227l-.54.842.54-.842ZM88.32 86.63l-.611-.792.611.792ZM68.48 98.096l-.354-.935a1 1 0 0 0-.413 1.577l.767-.642Zm13.44 9.555-.405.914a1 1 0 0 0 .667.051l-.262-.965Zm14.72-7.007-.524-.852.524.852Zm9.6-7.007-.676-.737.676.737Zm6.4-7.007.787.616-.787-.616Zm5.12-7.644.856.517a1.48 1.48 0 0 0 .038-.068l-.894-.449Zm4.48-10.192.948.318a.996.996 0 0 0 .042-.46l-.99.142ZM108.8 46.5l.446-.895a1.002 1.002 0 0 0-1.446.895h1Zm-1.28 12.103.969.246-.969-.246Zm-6.4 14.013.843.538-.843-.538ZM48 103.83l.83-.557a1 1 0 0 0-1.072-.414l.242.971Zm-22.4.637.116-.993a.999.999 0 0 0-1.021 1.417l.905-.424Zm32.64 10.828.25.969a1 1 0 0 0 .33-1.784l-.58.815ZM0 26.754v-1a1 1 0 0 0-1 1h1ZM0 122.3h-1a1 1 0 0 0 1 1v-1Zm24.32 0v1a1 1 0 0 0 1-1h-1ZM0 19.11h-1a1 1 0 0 0 1 1v-1ZM0 0v-1a1 1 0 0 0-1 1h1Zm24.32 19.11v1a1 1 0 0 0 1-1h-1Zm428.16 69.068h-24.96v2h24.96v-2Zm-25.958 1.068c.977 14.253 6.213 22.86 13.978 27.845 7.691 4.939 17.694 6.21 27.98 6.21v-2c-10.194 0-19.711-1.276-26.9-5.893-7.115-4.569-12.119-12.524-13.062-26.298l-1.996.136Zm41.958 34.055c10.606 0 21.432-1.435 29.77-6.265 8.419-4.878 14.2-13.159 14.749-26.543l-1.998-.082c-.522 12.733-5.954 20.376-13.753 24.894-7.88 4.565-18.278 5.996-28.768 5.996v2ZM513 90.452c0-8.608-3.518-14.466-8.836-18.605-5.26-4.093-12.249-6.482-19.188-8.319-7.036-1.862-13.907-3.136-19.36-5.015-5.489-1.89-8.91-4.201-9.594-7.744l-1.964.38c.916 4.738 5.415 7.364 10.906 9.255 5.527 1.904 12.696 3.257 19.5 5.057 6.901 1.827 13.552 4.135 18.472 7.964C507.798 77.21 511 82.5 511 90.452h2Zm-56.978-39.683c-.32-1.655.188-2.875 1.251-3.838 1.121-1.016 2.893-1.768 5.074-2.242 4.351-.946 9.866-.689 13.572.233l.482-1.94c-3.974-.99-9.8-1.265-14.479-.248-2.333.508-4.499 1.361-5.992 2.715-1.55 1.405-2.332 3.318-1.872 5.7l1.964-.38Zm19.733-5.902c2.743 1.213 4.056 2.393 5.075 3.624.538.65.98 1.295 1.547 2.06.555.745 1.188 1.545 2.038 2.39l1.41-1.417c-.75-.747-1.317-1.46-1.842-2.167-.513-.689-1.031-1.438-1.613-2.14-1.221-1.477-2.788-2.844-5.805-4.18l-.81 1.83Zm8.471 7.815c.45.894 1.268 1.556 2.199 2.058.941.508 2.089.9 3.334 1.21 2.49.62 5.522.943 8.426 1.103 2.913.161 5.739.161 7.834.121a114.464 114.464 0 0 0 3.462-.12h.017l-.058-1-.058-.998h-.003l-.011.001-.045.003a49.984 49.984 0 0 1-.864.04c-.594.025-1.447.055-2.478.074-2.065.04-4.839.04-7.686-.118-2.856-.158-5.744-.472-8.054-1.047-1.155-.287-2.127-.63-2.866-1.03-.749-.403-1.171-.815-1.361-1.195l-1.788.898Zm26.211 3.29c-.984-11.745-6.087-19.987-13.708-25.263-7.583-5.25-17.566-7.503-28.249-7.503v2c10.437 0 19.974 2.205 27.111 7.147 7.099 4.915 11.916 12.598 12.852 23.785l1.994-.167ZM468.48 23.204c-9.576 0-19.068 2.096-26.359 6.935-7.331 4.866-12.38 12.473-13.039 23.306l1.996.122c.62-10.188 5.324-17.232 12.149-21.761 6.864-4.556 15.932-6.601 25.253-6.601v-2Zm-38.4 30.302-.998-.066v.007l-.001.014a1.541 1.541 0 0 0-.003.05l-.007.18a15.4 15.4 0 0 0-.006.658c.005.563.037 1.366.141 2.347.207 1.96.704 4.642 1.866 7.534 2.337 5.814 7.347 12.424 17.911 15.71l.594-1.91c-9.916-3.084-14.506-9.214-16.649-14.546a26.37 26.37 0 0 1-1.734-6.998c-.096-.91-.124-1.65-.129-2.156a15.276 15.276 0 0 1 .011-.72l.001-.032a.02.02 0 0 0 .001-.006l-.998-.066Zm18.803 26.397c3.777 1.635 8.019 2.686 12.208 3.536 4.25.862 8.324 1.497 12.05 2.334 3.704.833 6.807 1.817 8.972 3.27 2.102 1.409 3.287 3.229 3.287 5.867h2c0-3.414-1.615-5.813-4.173-7.529-2.495-1.673-5.912-2.72-9.648-3.559-3.714-.835-8-1.513-12.09-2.343-4.151-.842-8.229-1.861-11.812-3.412l-.794 1.836ZM485.406 94.8c-.268 2.398-1.987 4.297-4.679 5.599-2.689 1.301-6.2 1.92-9.65 1.793l-.074 1.999c3.703.135 7.552-.52 10.595-1.992 3.039-1.47 5.423-3.842 5.796-7.177l-1.988-.222Zm-14.329 7.392c-4.51-.165-8.613-.797-11.728-2.687-3.041-1.845-5.264-4.968-5.875-10.438l-1.988.222c.669 5.995 3.18 9.714 6.826 11.926 3.572 2.167 8.109 2.808 12.691 2.976l.074-1.999Zm-88.327 21.086c17.726-.515 27.922-8.411 33.659-16.233a41.842 41.842 0 0 0 5.624-10.639 36.41 36.41 0 0 0 1.059-3.495c.105-.423.178-.758.225-.99l.052-.27.013-.072a.278.278 0 0 1 .003-.021l.001-.007.001-.002-.987-.163-.987-.162v.001l-.002.012-.01.055-.045.231c-.041.207-.108.515-.205.91a34.74 34.74 0 0 1-1.002 3.303 39.849 39.849 0 0 1-5.353 10.126c-5.407 7.372-15.051 14.922-32.104 15.417l.058 1.999Zm39.78-32.883c-7.402-.971-12.425-1.023-16.124-.48-3.736.546-6.092 1.695-8.154 3.049-.998.655-1.96 1.383-2.91 2.056-.969.687-1.986 1.362-3.195 1.997-2.407 1.263-5.647 2.399-10.827 3.03l.242 1.986c5.38-.656 8.86-1.853 11.514-3.245 1.32-.693 2.419-1.425 3.422-2.136 1.022-.725 1.89-1.385 2.852-2.017 1.858-1.22 3.942-2.244 7.346-2.742 3.44-.504 8.257-.475 15.574.485l.26-1.983Zm-41.089 9.645c-4.264 0-7.438-1.268-9.825-3.134-2.402-1.878-4.06-4.402-5.201-6.98-1.14-2.575-1.746-5.164-2.067-7.118a30.546 30.546 0 0 1-.294-2.348 20.677 20.677 0 0 1-.045-.648l-.008-.165-.001-.04V79.599l-1 .025-1 .026v.006a.063.063 0 0 1 .001.015l.002.053a19.484 19.484 0 0 0 .058.905c.051.607.144 1.47.314 2.503.338 2.062.982 4.827 2.212 7.606 1.229 2.777 3.062 5.607 5.798 7.745 2.75 2.149 6.361 3.558 11.056 3.558v-2ZM363 80.623h59.4v-2H363v2Zm-23.999-10.009c-.688 13.339 2.472 26.702 9.708 36.649 7.264 9.984 18.595 16.464 34.041 16.015l-.058-1.999c-14.775.429-25.484-5.733-32.365-15.193-6.909-9.496-9.999-22.378-9.328-35.369l-1.998-.103Zm25.997-7.856c.109-1.976.815-6.145 3.205-9.788 2.353-3.585 6.356-6.702 13.237-6.702v-2c-7.623 0-12.225 3.515-14.909 7.605-2.646 4.032-3.409 8.58-3.529 10.775l1.996.11ZM400 61.703h-36v2h36v-2Zm-18.56-15.435c6.888 0 11.112 3.125 13.713 6.738 2.633 3.658 3.608 7.84 3.855 9.82l1.984-.246c-.272-2.19-1.325-6.727-4.216-10.743-2.924-4.061-7.719-7.569-15.336-7.569v2Zm41.96 24.398c0-9.164-3.284-20.696-10.146-29.957-6.883-9.29-17.402-16.329-31.813-16.329v2c13.669 0 23.63 6.645 30.206 15.52 6.597 8.903 9.753 20.014 9.753 28.766h2ZM381.441 24.38c-14.314 0-24.652 5.273-31.549 13.766-6.868 8.457-10.247 20.009-10.891 32.468l1.998.103c.629-12.197 3.931-23.289 10.445-31.31 6.485-7.986 16.232-13.027 29.997-13.027v-2ZM423.4 79.623v-8.957h-2v8.957h2Zm-155.051-6.47c0 10.037 1.789 17.183 5.457 21.83 3.712 4.701 9.197 6.661 16.114 6.661v-2c-6.532 0-11.333-1.833-14.544-5.9-3.254-4.122-5.027-10.72-5.027-20.59h-2Zm27.971 48.148c-11.187 0-17.66-3.427-21.326-6.748-1.842-1.669-2.999-3.331-3.691-4.565a13.049 13.049 0 0 1-.717-1.475 7.074 7.074 0 0 1-.186-.505v-.002.002c0 .001.001.001-.96.28l-.96.279.001.002.001.005a.583.583 0 0 0 .017.055c.011.034.026.082.047.141.04.119.102.287.186.496.17.418.436 1.004.827 1.701.782 1.393 2.067 3.234 4.092 5.069 4.069 3.686 11.036 7.265 22.669 7.265v-2Zm-27.88-13.013v22.931h2v-22.931h-2Zm0 22.931c0 6.479-5.278 11.74-11.8 11.74v2c7.617 0 13.8-6.147 13.8-13.74h-2Zm-11.8 11.74H246v2h10.64v-2Zm31.391-98.576c-6.727 0-11.753 2.189-15.033 7.048-3.221 4.77-4.649 11.963-4.649 21.723h2c0-9.648 1.429-16.341 4.306-20.604 2.818-4.174 7.133-6.167 13.376-6.167v-2ZM333.5 73.255c-.088-15.37-3.745-27.617-11.318-36.027-7.591-8.43-18.971-12.848-34.151-12.848v2c14.788 0 25.556 4.291 32.665 12.186 7.126 7.914 10.718 19.607 10.804 34.7l2-.011ZM288.031 24.38c-15.094 0-25.99 3.13-33.039 11.816-6.996 8.621-10.003 22.49-9.992 43.428l2-.001c-.011-20.865 3.013-34.117 9.545-42.167 6.48-7.985 16.61-11.076 31.486-11.076v-2Zm1.889 77.264c6.757 0 11.907-2.051 15.309-6.797 3.346-4.669 4.874-11.777 4.874-21.594h-2c0 9.692-1.525 16.278-4.499 20.428-2.919 4.072-7.361 5.963-13.684 5.963v2ZM246 143.959h1v-.338l.001-.99.002-3.801.004-13.911c.002-11.708.002-27.792-.007-45.296h-2c.009 17.505.009 33.588.007 45.296l-.004 13.91-.002 3.801-.001.99v.338l1 .001Zm42.031-97.576c6.256 0 11.205 2.006 14.62 6.247 3.446 4.28 5.452 10.984 5.452 20.623h2c0-9.868-2.046-17.099-5.894-21.877-3.878-4.817-9.465-6.993-16.178-6.993v2ZM331.5 73.266c.068 11.862-2.908 23.919-8.823 32.978-5.898 9.033-14.689 15.057-26.357 15.057v2c12.472 0 21.84-6.482 28.031-15.963 6.174-9.455 9.218-21.918 9.149-34.083l-2 .011ZM181.12 88.178h-24.96v2h24.96v-2Zm-25.958 1.068c.977 14.253 6.213 22.86 13.978 27.845 7.691 4.939 17.694 6.21 27.98 6.21v-2c-10.194 0-19.711-1.276-26.9-5.893-7.115-4.569-12.119-12.524-13.062-26.298l-1.996.136Zm41.958 34.055c10.606 0 21.432-1.435 29.77-6.265 8.419-4.878 14.2-13.159 14.749-26.543l-1.998-.082c-.522 12.733-5.954 20.376-13.753 24.894-7.88 4.565-18.278 5.996-28.768 5.996v2Zm44.52-32.849c0-8.608-3.518-14.466-8.836-18.605-5.26-4.093-12.249-6.482-19.188-8.319-7.036-1.862-13.907-3.136-19.36-5.015-5.489-1.89-8.91-4.201-9.594-7.744l-1.964.38c.916 4.738 5.415 7.364 10.906 9.255 5.527 1.904 12.696 3.257 19.5 5.057 6.901 1.827 13.552 4.135 18.472 7.964 4.862 3.784 8.064 9.074 8.064 17.027h2Zm-56.978-39.683c-.32-1.655.188-2.875 1.251-3.838 1.121-1.016 2.893-1.768 5.074-2.242 4.351-.946 9.866-.689 13.572.233l.482-1.94c-3.974-.99-9.8-1.265-14.479-.248-2.333.508-4.499 1.361-5.992 2.715-1.55 1.405-2.332 3.318-1.872 5.7l1.964-.38Zm19.733-5.902c2.743 1.213 4.056 2.393 5.075 3.624.538.65.98 1.295 1.547 2.06.555.745 1.188 1.545 2.038 2.39l1.41-1.417c-.75-.747-1.317-1.46-1.842-2.167-.513-.689-1.031-1.438-1.613-2.14-1.221-1.477-2.788-2.844-5.805-4.18l-.81 1.83Zm8.471 7.815c.45.894 1.268 1.556 2.199 2.058.941.508 2.089.9 3.334 1.21 2.49.62 5.522.943 8.426 1.103 2.913.161 5.739.161 7.834.121a114.464 114.464 0 0 0 3.462-.12h.017l-.058-1-.058-.998h-.003l-.011.001-.045.003a49.984 49.984 0 0 1-.864.04c-.594.025-1.447.055-2.478.074-2.065.04-4.839.04-7.686-.118-2.856-.158-5.744-.472-8.054-1.047-1.155-.287-2.127-.63-2.866-1.03-.749-.403-1.171-.815-1.361-1.195l-1.788.898Zm26.21 3.29c-.983-11.745-6.086-19.987-13.707-25.263-7.583-5.25-17.566-7.503-28.249-7.503v2c10.437 0 19.974 2.205 27.111 7.147 7.099 4.915 11.916 12.598 12.852 23.785l1.993-.167ZM197.12 23.204c-9.576 0-19.068 2.096-26.359 6.935-7.331 4.866-12.38 12.473-13.039 23.306l1.996.122c.62-10.188 5.324-17.232 12.149-21.761 6.864-4.556 15.932-6.601 25.253-6.601v-2Zm-38.4 30.302-.998-.066v.007l-.001.014a1.541 1.541 0 0 0-.003.05l-.007.18a15.4 15.4 0 0 0-.006.658c.005.563.037 1.366.141 2.347.207 1.96.704 4.642 1.866 7.534 2.337 5.814 7.347 12.424 17.911 15.71l.594-1.91c-9.916-3.084-14.506-9.214-16.649-14.546a26.37 26.37 0 0 1-1.734-6.998c-.096-.91-.124-1.65-.129-2.156a15.276 15.276 0 0 1 .011-.72l.001-.032a.02.02 0 0 0 .001-.006l-.998-.066Zm18.803 26.397c3.777 1.635 8.019 2.686 12.208 3.536 4.25.862 8.323 1.497 12.05 2.334 3.704.833 6.807 1.817 8.972 3.27 2.102 1.409 3.287 3.229 3.287 5.867h2c0-3.414-1.615-5.813-4.173-7.529-2.495-1.673-5.912-2.72-9.648-3.559-3.714-.835-8-1.513-12.09-2.343-4.151-.842-8.229-1.861-11.812-3.412l-.794 1.836ZM214.046 94.8c-.268 2.398-1.987 4.297-4.679 5.599-2.689 1.301-6.2 1.92-9.65 1.793l-.074 1.999c3.703.135 7.552-.52 10.595-1.992 3.039-1.47 5.423-3.842 5.796-7.177l-1.988-.222Zm-14.329 7.392c-4.51-.165-8.613-.797-11.728-2.687-3.041-1.845-5.264-4.968-5.875-10.438l-1.988.222c.669 5.995 3.18 9.714 6.826 11.926 3.572 2.167 8.109 2.808 12.691 2.976l.074-1.999Zm-40.706-36.095c-2.536 16.72-9.181 31.785-20.344 42.504-11.145 10.703-26.875 17.152-47.757 16.523l-.06 1.999c21.358.644 37.628-5.965 49.203-17.079 11.557-11.097 18.352-26.608 20.936-43.647l-1.978-.3Zm-68 61.018c14.721-1.954 25.497-10.097 32.894-19.482 7.386-9.371 11.451-20.034 12.759-27.193l-1.968-.36c-1.252 6.855-5.187 17.213-12.361 26.315-7.163 9.087-17.507 16.868-31.586 18.737l.263 1.983Zm45.653-46.675c.468-2.566.842-4.489 1.517-6.188.66-1.663 1.621-3.136 3.306-4.731l-1.374-1.453c-1.883 1.782-3.016 3.494-3.791 5.446-.761 1.915-1.164 4.037-1.626 6.567l1.968.359Zm4.823-10.92c1.194-1.13 2.89-1.879 4.853-2.339 1.956-.458 4.101-.612 6.113-.606a44.929 44.929 0 0 1 7.217.628l.108.02.026.004.006.001h.001l.189-.981c.189-.982.189-.983.188-.983h-.003l-.009-.002-.033-.006-.124-.022a44.151 44.151 0 0 0-2.128-.311 46.923 46.923 0 0 0-5.433-.348c-2.103-.006-4.415.153-6.574.659-2.15.504-4.224 1.37-5.771 2.834l1.374 1.453ZM59.836 86.895c1.405 5.133 3.255 7.846 6.597 11.843l1.534-1.283c-3.242-3.878-4.902-6.337-6.203-11.088l-1.928.528Zm6.597 11.843c4.459 5.334 8.034 7.856 14.47 10.477l.754-1.853c-6.15-2.504-9.451-4.837-13.69-9.907l-1.534 1.283Zm14.47 10.477c8.871 3.612 18.365 3.6 26.589 1.814 8.209-1.784 15.262-5.359 19.262-9.009l-1.348-1.477c-3.68 3.358-10.387 6.804-18.338 8.531-7.936 1.724-17.002 1.712-25.41-1.712l-.755 1.853Zm45.177-7.933-.862-.507-.001.001-.006.01-.026.044-.111.181c-.1.16-.251.398-.453.704a49.584 49.584 0 0 1-1.818 2.556 60.217 60.217 0 0 1-7.16 7.873c-6.301 5.792-15.531 11.69-27.378 12.345l.11 1.997c12.473-.69 22.123-6.895 28.622-12.87a62.225 62.225 0 0 0 7.4-8.137 51.476 51.476 0 0 0 1.892-2.661 32.648 32.648 0 0 0 .607-.953l.033-.055a.147.147 0 0 0 .009-.015.014.014 0 0 1 .003-.004v-.002l-.861-.507Zm-37.646 23.212c-16.437-1.888-28.018-8.162-35.341-17.079-7.33-8.924-10.485-20.606-9.854-33.475l-1.998-.098c-.65 13.248 2.595 25.453 10.306 34.842 7.717 9.397 19.816 15.862 36.659 17.797l.228-1.987Zm-45.198-50.51c2.208-23.545 13.528-35.69 24.231-41.989 5.372-3.16 10.612-4.86 14.51-5.77a46.635 46.635 0 0 1 4.673-.851 30.516 30.516 0 0 1 1.615-.163 8.544 8.544 0 0 1 .098-.005h.003l-.046-1a58.17 58.17 0 0 0-.047-.998h-.011c-.007 0-.016 0-.027.002a32.756 32.756 0 0 0-1.837.18c-1.176.15-2.853.416-4.875.888-4.042.942-9.482 2.706-15.07 5.994-11.217 6.6-22.937 19.297-25.209 43.526l1.992.187ZM88.32 24.206l.044 1h.004l.02-.001.082-.003a32.452 32.452 0 0 1 1.645.01c1.128.035 2.735.135 4.64.394 3.82.517 8.793 1.667 13.493 4.18 4.69 2.507 9.093 6.362 11.834 12.307 2.743 5.948 3.867 14.09 1.815 25.248l1.966.361c2.108-11.455.992-20.034-1.965-26.447-2.959-6.417-7.716-10.564-12.707-13.233-4.979-2.662-10.205-3.861-14.167-4.398a47.391 47.391 0 0 0-4.847-.41 34.339 34.339 0 0 0-1.762-.011c-.043 0-.077.002-.1.003h-.028l-.008.001h-.002s-.002 0 .043 1Zm35.54 43.118c-1.287-6.405-2.693-10.755-4.925-14.21-2.243-3.471-5.263-5.953-9.595-8.729l-1.08 1.684c4.24 2.717 6.981 5.013 8.995 8.13 2.024 3.134 3.372 7.185 4.645 13.52l1.96-.395Zm-14.52-22.939c-10.828-6.938-25.393-4.031-36.058 4.317-10.705 8.38-17.76 22.437-13.446 38.193l1.928-.528c-4.057-14.819 2.538-28.096 12.751-36.09C84.77 42.25 98.39 39.743 108.26 46.068l1.08-1.684ZM87.709 85.838c-6.573 5.073-11.867 8.4-19.583 11.323l.708 1.87c7.953-3.013 13.42-6.456 20.097-11.61l-1.222-1.583Zm-19.996 12.9c3.32 3.966 7.938 7.233 13.802 9.827l.81-1.829c-5.656-2.502-9.999-5.604-13.078-9.282l-1.534 1.284Zm14.469 9.878c7.2-1.955 9.578-3.793 14.982-7.121l-1.048-1.703c-5.434 3.346-7.578 5.026-14.458 6.893l.524 1.931Zm14.982-7.121c3.973-2.446 6.262-3.923 9.752-7.12l-1.352-1.475c-3.351 3.07-5.514 4.47-9.448 6.892l1.048 1.703Zm9.752-7.12c2.783-2.552 4.204-4.18 6.511-7.129l-1.575-1.232c-2.258 2.886-3.604 4.427-6.288 6.886l1.352 1.474Zm6.511-7.129c1.138-1.453 2.438-3.396 3.444-4.958.506-.784.941-1.48 1.251-1.979.154-.25.278-.45.362-.59l.098-.16.025-.041.007-.011.001-.003h.001v-.001l-.856-.517-.856-.517-.001.001-.001.002a124.61 124.61 0 0 1-1.712 2.733c-1 1.553-2.26 3.431-3.338 4.809l1.575 1.232Zm4.333-8.26.894.449v-.001l.002-.004.007-.014.028-.056.105-.211a152.656 152.656 0 0 0 1.631-3.405c.961-2.072 2.102-4.664 2.761-6.632l-1.896-.635c-.621 1.854-1.72 4.358-2.679 6.426a153.66 153.66 0 0 1-1.609 3.358l-.103.206-.026.053-.007.013-.001.003-.001.001.894.45Zm5.47-10.334c-1.294-9.014-4.571-18.363-13.984-23.047l-.892 1.79c8.507 4.234 11.63 12.72 12.896 21.541l1.98-.284ZM107.8 46.5c0 4.43-.047 7.13-1.249 11.856l1.938.493c1.264-4.967 1.311-7.862 1.311-12.35h-2Zm-1.249 11.856c-1.447 5.687-3.067 8.698-6.274 13.722l1.686 1.076c3.271-5.123 5.008-8.336 6.526-14.305l-1.938-.493Zm-6.274 13.722c-3.924 6.147-6.788 9.3-12.568 13.76l1.222 1.584c5.965-4.604 8.986-7.929 13.032-14.268l-1.686-1.076Zm-52.519 30.78c-3.796.945-6.6 1.406-9.782 1.484-3.203.078-6.822-.233-12.26-.869l-.232 1.986c5.442.637 9.183.964 12.54.882 3.377-.082 6.334-.576 10.217-1.542l-.483-1.941Zm-23.063 2.032c4.57 9.748 9.872 13.567 15.813 14.342 2.909.38 5.89.016 8.877-.621 2.964-.632 6.069-1.567 9.104-2.348l-.498-1.937c-3.155.811-6.106 1.707-9.023 2.329-2.892.617-5.618.931-8.201.594-5.044-.658-9.872-3.846-14.262-13.208l-1.81.849Zm34.124 9.589c-4.318-3.07-7.432-7.391-9.988-11.207l-1.662 1.113c2.564 3.828 5.85 8.425 10.492 11.724l1.158-1.63ZM-1 26.753v95.548h2V26.753h-2Zm1 96.548h24.32v-2H0v2Zm25.32-1v-85.61h-2v85.61h2Zm0-85.61c0-6.045-4.922-10.938-10.984-10.938v2c4.966 0 8.984 4.006 8.984 8.937h2ZM14.336 25.752H0v2h14.336v-2ZM1 19.11V0h-2v19.11h2ZM0 1h14.336v-2H0v2Zm14.336 0c4.966 0 8.984 4.006 8.984 8.937h2C25.32 3.892 20.398-1 14.336-1v2Zm8.984 8.937v9.173h2V9.937h-2Zm1 8.173H0v2h24.32v-2Z" fill="#fff" fill-opacity=".8" mask="url(#l)"/></g><defs><linearGradient id="b" x1="0" y1="0" x2="512" y2="144" gradientUnits="userSpaceOnUse"><stop stop-color="#fff"/><stop offset="1" stop-color="#fff" stop-opacity=".65"/></linearGradient><linearGradient id="c" x1="0" y1="0" x2="512" y2="144" gradientUnits="userSpaceOnUse"><stop stop-color="#fff"/><stop offset="1" stop-color="#fff" stop-opacity=".65"/></linearGradient><linearGradient id="d" x1="0" y1="0" x2="512" y2="144" gradientUnits="userSpaceOnUse"><stop stop-color="#fff"/><stop offset="1" stop-color="#fff" stop-opacity=".65"/></linearGradient><linearGradient id="e" x1="0" y1="0" x2="512" y2="144" gradientUnits="userSpaceOnUse"><stop stop-color="#fff"/><stop offset="1" stop-color="#fff" stop-opacity=".65"/></linearGradient><linearGradient id="f" x1="0" y1="0" x2="512" y2="144" gradientUnits="userSpaceOnUse"><stop stop-color="#fff"/><stop offset="1" stop-color="#fff" stop-opacity=".65"/></linearGradient><linearGradient id="g" x1="0" y1="0" x2="512" y2="144" gradientUnits="userSpaceOnUse"><stop stop-color="#fff"/><stop offset="1" stop-color="#fff" stop-opacity=".65"/></linearGradient><linearGradient id="h" x1="0" y1="0" x2="512" y2="144" gradientUnits="userSpaceOnUse"><stop stop-color="#fff"/><stop offset="1" stop-color="#fff" stop-opacity=".65"/></linearGradient><linearGradient id="i" x1="0" y1="0" x2="512" y2="144" gradientUnits="userSpaceOnUse"><stop stop-color="#fff"/><stop offset="1" stop-color="#fff" stop-opacity=".65"/></linearGradient><linearGradient id="j" x1="0" y1="0" x2="512" y2="144" gradientUnits="userSpaceOnUse"><stop stop-color="#fff"/><stop offset="1" stop-color="#fff" stop-opacity=".65"/></linearGradient><linearGradient id="k" x1="0" y1="0" x2="512" y2="144" gradientUnits="userSpaceOnUse"><stop stop-color="#fff"/><stop offset="1" stop-color="#fff" stop-opacity=".65"/></linearGradient><filter id="a" x="-5" y="-5" width="522" height="153.959" filterUnits="userSpaceOnUse" color-interpolation-filters="sRGB"><feFlood flood-opacity="0" result="BackgroundImageFix"/><feGaussianBlur in="BackgroundImage" stdDeviation="2.5"/><feComposite in2="SourceAlpha" operator="in" result="effect1_backgroundBlur_29_34"/><feBlend in="SourceGraphic" in2="effect1_backgroundBlur_29_34" result="shape"/></filter></defs></svg>