<svg width="512" height="145" fill="none" xmlns="http://www.w3.org/2000/svg"><path d="M452.48 89.6h-24.96c1.92 28.16 20.48 33.28 40.96 33.28 21.096 0 42.449-5.76 43.52-32 0-33.28-53.76-23.04-56.96-39.68-1.56-8.111 13.44-8.96 21.12-7.04 5.76 2.56 5.76 5.12 8.96 8.32 2.56 5.12 24.32 3.84 24.32 3.84-1.92-23.04-19.84-32-40.96-32-18.897 0-37.12 8.32-38.4 29.44 0 0-1.28 19.2 19.2 25.6 14.72 6.4 37.12 3.84 37.12 16-.64 5.76-8.207 8.583-15.36 8.32-9.092-.334-17.28-2.56-18.56-14.08Z" fill="#347144"/><path fill-rule="evenodd" clip-rule="evenodd" d="M382.721 122.857C417.5 121.842 422.4 91.819 422.4 91.819c-29.439-3.88-19.839 7.113-40.959 9.699C363.523 101.518 363 80 363 80h59.4v-9c0-18-12.879-45.5-40.959-45.5-28.08 0-40.168 20.726-41.441 45.5-1.359 26.454 12.5 52.739 42.721 51.857Zm-1.281-77.374c-14.504 0-17.211 13.326-17.44 17.517h36c-.519-4.191-4.056-17.517-18.56-17.517Zm-85.12 77.397c-22.82 0-26.88-14.08-26.88-14.08v23.04c0 7.069-5.731 12.8-12.8 12.8H246s.019-29.466 0-64.64c-.022-42 12.061-54.5 42.031-54.5C318 25.5 332.326 43 332.5 73.607c.137 24.14-12.039 49.273-36.18 49.273Zm-6.4-21.76c-13.449 0-20.571-7.62-20.571-27.62 0-19.5 5.712-27.902 18.682-27.902C301 45.598 309.103 54 309.103 73.6S303 101.12 289.92 101.12Z" fill="#347144"/><path d="M181.12 89.6h-24.96c1.92 28.16 20.48 33.28 40.96 33.28 21.096 0 42.449-5.76 43.52-32 0-33.28-53.76-23.04-56.96-39.68-1.56-8.111 13.44-8.96 21.12-7.04 5.76 2.56 5.76 5.12 8.96 8.32 2.56 5.12 24.32 3.84 24.32 3.84-1.92-23.04-19.84-32-40.96-32-18.897 0-37.12 8.32-38.4 29.44 0 0-1.28 19.2 19.2 25.6 14.72 6.4 37.12 3.84 37.12 16-.64 5.76-8.207 8.583-15.36 8.32-9.092-.334-17.28-2.56-18.56-14.08Z" fill="#347144"/><path d="M160 66.56c-5.12 33.92-26.88 61.44-69.12 60.16 28.8-3.84 42.24-32 44.8-46.08.931-5.12 1.553-8.127 5.12-11.52 5.481-5.213 19.2-2.56 19.2-2.56Z" fill="#347144"/><path d="M60.8 87.04c1.353 4.965 3.108 7.564 6.4 11.52 4.349 5.226 7.787 7.666 14.08 10.24 17.28 7.07 37.12 0 44.8-7.04 0 0-13.44 22.969-37.76 24.32-33.28-3.84-47.36-25.6-46.08-51.84 4.48-48 46.08-49.92 46.08-49.92s42.88-1.92 34.56 43.52c-2.56-12.8-5.508-16.88-14.08-22.4-20.698-13.326-56.372 10.88-48 41.6Z" fill="#A0C655"/><path d="M88.32 87.04c-6.625 5.137-12.005 8.538-19.84 11.52 3.2 3.84 7.68 7.04 13.44 9.6 7.04-1.92 9.301-3.687 14.72-7.04 3.954-2.446 6.18-3.891 9.6-7.04 2.734-2.516 4.117-4.109 6.4-7.04 2.215-2.844 5.12-7.68 5.12-7.68s3.2-6.4 4.48-10.24c-1.28-8.96-4.48-17.92-13.44-22.4 0 4.48-.047 7.29-1.28 12.16-1.483 5.855-3.161 8.982-6.4 14.08-3.985 6.272-6.928 9.527-12.8 14.08ZM48 104.32c-7.68 1.92-11.52 1.92-22.4.64 8.96 19.2 20.26 14.08 32.64 10.88-4.48-3.2-7.68-7.68-10.24-11.52ZM0 26.88v96h24.32V36.864c0-5.514-4.47-9.984-9.984-9.984H0Zm0-7.68V0h14.336c5.514 0 9.984 4.47 9.984 9.984V19.2H0Z" fill="#347144"/></svg>